<svg width="128" height="128" viewBox="0 0 128 128" fill="none" xmlns="http://www.w3.org/2000/svg">
<g clip-path="url(#clip0)">
<rect width="128" height="128" fill="transparent"/>
<path d="M20.9 38.8C17.7 45.7333 16.1 51.9333 16.1 57.4C16.1 68.6667 19.9667 75.5667 27.7 78.1C29.9667 78.7 32.2667 79 34.6 79C37 79 39.4 78.7 41.8 78.1C46.6 76.8333 50.9 74.9333 54.7 72.4C58.5 69.8667 60.9 67.4333 61.9 65.1C64.5667 58.9 67.4333 55.8 70.5 55.8C72.0333 55.8 73.0667 56.6667 73.6 58.4C73.8667 59.0667 73.9333 59.8 73.8 60.6C73.1333 65.8 71.7 70.9667 69.5 76.1C67.3 81.1667 64.2 87 60.2 93.6C68.2 93.6667 75.5 94.5333 82.1 96.2C83.5 96.5333 84.2 97 84.2 97.6C84.2 98.3333 83.2333 98.4667 81.3 98C76.7 96.8 70.0667 96.2 61.4 96.2C60.6 96.2 59.7333 96.2 58.8 96.2C54.7333 102.067 49.3 107.233 42.5 111.7C35.7667 116.233 29.2 119.333 22.8 121C19.2667 121.933 16.2667 122.4 13.8 122.4C11.3333 122.4 9.26667 122.1 7.6 121.5C2.73333 119.7 0.3 117.333 0.3 114.4C0.3 113.533 0.533333 112.6 1 111.6C2.8 107.6 7.53333 103.9 15.2 100.5C21 97.9 27.1 96.1333 33.5 95.2C39.9667 94.2667 47.2 93.7333 55.2 93.6C60.1333 85.2667 63.5 77.0667 65.3 69L65.7 67.3C62.5 70.3667 58.8667 73.1 54.8 75.5C50.8 77.8333 47.3 79.4667 44.3 80.4C39.5 81.9333 35.5333 82.7 32.4 82.7C29.3333 82.7 26.6333 82.2667 24.3 81.4C20.0333 79.9333 16.5667 77 13.9 72.6C11.0333 67.9333 9.6 62.3667 9.6 55.9C9.6 49.4333 11.3 42.5 14.7 35.1C10.3 30.5667 8.1 25.7667 8.1 20.7C8.1 15.5667 10.1667 10.7 14.3 6.1C15.1 5.23333 15.6667 4.93333 16 5.2C16.4 5.4 16.2667 5.96666 15.6 6.9C12.6 10.9 11.1 14.9333 11.1 19C11.1 23.6667 12.8333 28.0333 16.3 32.1C16.7 31.2333 17.4333 29.9333 18.5 28.2C23.7 19.6667 30.7667 13.1333 39.7 8.59999C46.7 5 53.4667 3.2 60 3.2C61.8 3.2 63.6 3.33333 65.4 3.6C74 4.93333 79.8 8.46666 82.8 14.2C84 16.4667 84.6 18.9333 84.6 21.6C84.6 24.2 83.7667 27 82.1 30C78.3667 36.4667 71.8333 41 62.5 43.6C57.5667 45 52.5333 45.7 47.4 45.7C36.6 45.7 27.7667 43.4 20.9 38.8ZM62.3 6.29999C56.5667 6.29999 50.5 8.23333 44.1 12.1C34.7 17.7 27.4 25.7333 22.2 36.2C25.3333 38.6 28.9333 40.3 33 41.3C37.1333 42.3 40.4333 42.8 42.9 42.8C56.9667 42.8 67.6 39.0333 74.8 31.5C78.4 27.6333 80.2 23.7667 80.2 19.9C80.2 13.7667 76.7667 9.63333 69.9 7.5C67.3667 6.69999 64.8333 6.29999 62.3 6.29999ZM5.4 115.1C5.4 116.967 7 118.233 10.2 118.9C11.2667 119.167 12.4333 119.3 13.7 119.3C18.4333 119.3 24.4333 117.6 31.7 114.2C40.9 110 48.2 104.033 53.6 96.3C46.6 96.5 40.4667 97.0333 35.2 97.9C27.6 99.0333 20.3667 101.8 13.5 106.2C8.1 109.667 5.4 112.633 5.4 115.1Z" fill="#fff"/>
<path d="M66.9 49.7L82.1 50H97.5C103.833 50 108.933 51.4 112.8 54.2C116.733 57 118.7 61.1 118.7 66.5C118.7 70.8333 117.233 74.5 114.3 77.5C111.367 80.5 108.333 82.4 105.2 83.2C110.667 84.2 114.9 86.3333 117.9 89.6C120.967 92.8667 122.5 97.1333 122.5 102.4C122.5 108.533 119.8 113.333 114.4 116.8C109.067 120.267 102.4 122 94.4 122C79.8 122 70.3333 122.267 66 122.8C65.6667 122.4 65.5 121.833 65.5 121.1L65.6 120.3C69.0667 119.5 71.3333 118.267 72.4 116.6C73.2667 115.267 73.8333 113.6 74.1 111.6C74.9 105.533 75.3 97.2667 75.3 86.8C75.3 64.8667 74.7 53.7 73.5 53.3C72.2333 52.9667 70.0333 52.8 66.9 52.8C66.7667 52.3333 66.7 51.8 66.7 51.2C66.7 50.6 66.7667 50.1 66.9 49.7ZM83.9 84.8V104.8C83.9 111.067 84.1 115.467 84.5 118C86.9 118.267 89.7 118.4 92.9 118.4C99.7667 118.4 104.867 117.233 108.2 114.9C111.6 112.567 113.3 108.8 113.3 103.6C113.3 98.3333 111.633 93.9667 108.3 90.5C104.967 87.0333 100.633 85.3 95.3 85.3H91.1C90.7 84.8333 90.5 84.2667 90.5 83.6L91.1 81.6H94C104.667 81.6 110 76.9667 110 67.7C110 63.1 108.6 59.6 105.8 57.2C103 54.7333 99.3 53.5 94.7 53.5C90.1667 53.5 86.9667 53.6333 85.1 53.9C84.3 57.1 83.9 67.4 83.9 84.8Z" fill="#E3117C"/>
</g>
<defs>
<clipPath id="clip0">
<rect width="128" height="128" fill="transparent"/>
</clipPath>
</defs>
</svg>
